<svg width="267" height="72" viewBox="0 0 267 72" fill="none" xmlns="http://www.w3.org/2000/svg">
<path d="M92.032 42.288C90.736 42.288 89.528 42.08 88.408 41.664C87.304 41.232 86.344 40.624 85.528 39.84C84.712 39.056 84.072 38.136 83.608 37.08C83.16 36.024 82.936 34.864 82.936 33.6C82.936 32.336 83.16 31.176 83.608 30.12C84.072 29.064 84.712 28.144 85.528 27.36C86.36 26.576 87.328 25.976 88.432 25.56C89.536 25.128 90.744 24.912 92.056 24.912C93.512 24.912 94.824 25.168 95.992 25.68C97.176 26.176 98.168 26.912 98.968 27.888L96.472 30.192C95.896 29.536 95.256 29.048 94.552 28.728C93.848 28.392 93.08 28.224 92.248 28.224C91.464 28.224 90.744 28.352 90.088 28.608C89.432 28.864 88.864 29.232 88.384 29.712C87.904 30.192 87.528 30.76 87.256 31.416C87 32.072 86.872 32.8 86.872 33.6C86.872 34.4 87 35.128 87.256 35.784C87.528 36.44 87.904 37.008 88.384 37.488C88.864 37.968 89.432 38.336 90.088 38.592C90.744 38.848 91.464 38.976 92.248 38.976C93.08 38.976 93.848 38.816 94.552 38.496C95.256 38.16 95.896 37.656 96.472 36.984L98.968 39.288C98.168 40.264 97.176 41.008 95.992 41.52C94.824 42.032 93.504 42.288 92.032 42.288ZM107.028 42.192C105.652 42.192 104.428 41.904 103.356 41.328C102.3 40.752 101.46 39.968 100.836 38.976C100.228 37.968 99.9243 36.824 99.9243 35.544C99.9243 34.248 100.228 33.104 100.836 32.112C101.46 31.104 102.3 30.32 103.356 29.76C104.428 29.184 105.652 28.896 107.028 28.896C108.388 28.896 109.604 29.184 110.676 29.76C111.748 30.32 112.588 31.096 113.196 32.088C113.804 33.08 114.108 34.232 114.108 35.544C114.108 36.824 113.804 37.968 113.196 38.976C112.588 39.968 111.748 40.752 110.676 41.328C109.604 41.904 108.388 42.192 107.028 42.192ZM107.028 39.12C107.652 39.12 108.212 38.976 108.708 38.688C109.204 38.4 109.596 37.992 109.884 37.464C110.172 36.92 110.316 36.28 110.316 35.544C110.316 34.792 110.172 34.152 109.884 33.624C109.596 33.096 109.204 32.688 108.708 32.4C108.212 32.112 107.652 31.968 107.028 31.968C106.404 31.968 105.844 32.112 105.348 32.4C104.852 32.688 104.452 33.096 104.148 33.624C103.86 34.152 103.716 34.792 103.716 35.544C103.716 36.28 103.86 36.92 104.148 37.464C104.452 37.992 104.852 38.4 105.348 38.688C105.844 38.976 106.404 39.12 107.028 39.12ZM133.147 28.896C134.171 28.896 135.075 29.104 135.859 29.52C136.659 29.92 137.283 30.544 137.731 31.392C138.195 32.224 138.427 33.296 138.427 34.608V42H134.683V35.184C134.683 34.144 134.467 33.376 134.035 32.88C133.603 32.384 132.995 32.136 132.211 32.136C131.667 32.136 131.179 32.264 130.747 32.52C130.315 32.76 129.979 33.128 129.739 33.624C129.499 34.12 129.379 34.752 129.379 35.52V42H125.635V35.184C125.635 34.144 125.419 33.376 124.987 32.88C124.571 32.384 123.971 32.136 123.187 32.136C122.643 32.136 122.155 32.264 121.723 32.52C121.291 32.76 120.955 33.128 120.715 33.624C120.475 34.12 120.355 34.752 120.355 35.52V42H116.611V29.088H120.187V32.616L119.515 31.584C119.963 30.704 120.595 30.04 121.411 29.592C122.243 29.128 123.187 28.896 124.243 28.896C125.427 28.896 126.459 29.2 127.339 29.808C128.235 30.4 128.827 31.312 129.115 32.544L127.795 32.184C128.227 31.176 128.915 30.376 129.859 29.784C130.819 29.192 131.915 28.896 133.147 28.896ZM158.319 28.896C159.343 28.896 160.247 29.104 161.031 29.52C161.831 29.92 162.455 30.544 162.903 31.392C163.367 32.224 163.599 33.296 163.599 34.608V42H159.855V35.184C159.855 34.144 159.639 33.376 159.207 32.88C158.775 32.384 158.167 32.136 157.383 32.136C156.839 32.136 156.351 32.264 155.919 32.52C155.487 32.76 155.151 33.128 154.911 33.624C154.671 34.12 154.551 34.752 154.551 35.52V42H150.807V35.184C150.807 34.144 150.591 33.376 150.159 32.88C149.743 32.384 149.143 32.136 148.359 32.136C147.815 32.136 147.327 32.264 146.895 32.52C146.463 32.76 146.127 33.128 145.887 33.624C145.647 34.12 145.527 34.752 145.527 35.52V42H141.783V29.088H145.359V32.616L144.687 31.584C145.135 30.704 145.767 30.04 146.583 29.592C147.415 29.128 148.359 28.896 149.415 28.896C150.599 28.896 151.631 29.2 152.511 29.808C153.407 30.4 153.999 31.312 154.287 32.544L152.967 32.184C153.399 31.176 154.087 30.376 155.031 29.784C155.991 29.192 157.087 28.896 158.319 28.896ZM172.403 42.192C171.331 42.192 170.371 41.984 169.523 41.568C168.691 41.152 168.043 40.52 167.579 39.672C167.115 38.808 166.883 37.712 166.883 36.384V29.088H170.627V35.832C170.627 36.904 170.851 37.696 171.299 38.208C171.763 38.704 172.411 38.952 173.243 38.952C173.819 38.952 174.331 38.832 174.779 38.592C175.227 38.336 175.579 37.952 175.835 37.44C176.091 36.912 176.219 36.256 176.219 35.472V29.088H179.963V42H176.411V38.448L177.059 39.48C176.627 40.376 175.987 41.056 175.139 41.52C174.307 41.968 173.395 42.192 172.403 42.192ZM191.279 28.896C192.303 28.896 193.215 29.104 194.015 29.52C194.831 29.92 195.471 30.544 195.935 31.392C196.399 32.224 196.631 33.296 196.631 34.608V42H192.887V35.184C192.887 34.144 192.655 33.376 192.191 32.88C191.743 32.384 191.103 32.136 190.271 32.136C189.679 32.136 189.143 32.264 188.663 32.52C188.199 32.76 187.831 33.136 187.559 33.648C187.303 34.16 187.175 34.816 187.175 35.616V42H183.431V29.088H187.007V32.664L186.335 31.584C186.799 30.72 187.463 30.056 188.327 29.592C189.191 29.128 190.175 28.896 191.279 28.896ZM200.025 42V29.088H203.769V42H200.025ZM201.897 27.288C201.209 27.288 200.649 27.088 200.217 26.688C199.785 26.288 199.569 25.792 199.569 25.2C199.569 24.608 199.785 24.112 200.217 23.712C200.649 23.312 201.209 23.112 201.897 23.112C202.585 23.112 203.145 23.304 203.577 23.688C204.009 24.056 204.225 24.536 204.225 25.128C204.225 25.752 204.009 26.272 203.577 26.688C203.161 27.088 202.601 27.288 201.897 27.288ZM213.484 42.192C212.092 42.192 210.852 41.912 209.764 41.352C208.676 40.776 207.82 39.984 207.196 38.976C206.588 37.968 206.284 36.824 206.284 35.544C206.284 34.248 206.588 33.104 207.196 32.112C207.82 31.104 208.676 30.32 209.764 29.76C210.852 29.184 212.092 28.896 213.484 28.896C214.844 28.896 216.028 29.184 217.036 29.76C218.044 30.32 218.788 31.128 219.268 32.184L216.364 33.744C216.028 33.136 215.604 32.688 215.092 32.4C214.596 32.112 214.052 31.968 213.46 31.968C212.82 31.968 212.244 32.112 211.732 32.4C211.22 32.688 210.812 33.096 210.508 33.624C210.22 34.152 210.076 34.792 210.076 35.544C210.076 36.296 210.22 36.936 210.508 37.464C210.812 37.992 211.22 38.4 211.732 38.688C212.244 38.976 212.82 39.12 213.46 39.12C214.052 39.12 214.596 38.984 215.092 38.712C215.604 38.424 216.028 37.968 216.364 37.344L219.268 38.928C218.788 39.968 218.044 40.776 217.036 41.352C216.028 41.912 214.844 42.192 213.484 42.192ZM229.343 42V39.48L229.103 38.928V34.416C229.103 33.616 228.855 32.992 228.359 32.544C227.879 32.096 227.135 31.872 226.127 31.872C225.439 31.872 224.759 31.984 224.087 32.208C223.431 32.416 222.871 32.704 222.407 33.072L221.063 30.456C221.767 29.96 222.615 29.576 223.607 29.304C224.599 29.032 225.607 28.896 226.631 28.896C228.599 28.896 230.127 29.36 231.215 30.288C232.303 31.216 232.847 32.664 232.847 34.632V42H229.343ZM225.407 42.192C224.399 42.192 223.535 42.024 222.815 41.688C222.095 41.336 221.543 40.864 221.159 40.272C220.775 39.68 220.583 39.016 220.583 38.28C220.583 37.512 220.767 36.84 221.135 36.264C221.519 35.688 222.119 35.24 222.935 34.92C223.751 34.584 224.815 34.416 226.127 34.416H229.559V36.6H226.535C225.655 36.6 225.047 36.744 224.711 37.032C224.391 37.32 224.231 37.68 224.231 38.112C224.231 38.592 224.415 38.976 224.783 39.264C225.167 39.536 225.687 39.672 226.343 39.672C226.967 39.672 227.527 39.528 228.023 39.24C228.519 38.936 228.879 38.496 229.103 37.92L229.679 39.648C229.407 40.48 228.911 41.112 228.191 41.544C227.471 41.976 226.543 42.192 225.407 42.192ZM241.516 42.192C239.996 42.192 238.812 41.808 237.964 41.04C237.116 40.256 236.692 39.096 236.692 37.56V26.232H240.436V37.512C240.436 38.056 240.58 38.48 240.868 38.784C241.156 39.072 241.548 39.216 242.044 39.216C242.636 39.216 243.14 39.056 243.556 38.736L244.564 41.376C244.18 41.648 243.716 41.856 243.172 42C242.644 42.128 242.092 42.192 241.516 42.192ZM234.7 32.256V29.376H243.652V32.256H234.7ZM252.675 42.192C251.203 42.192 249.907 41.904 248.787 41.328C247.683 40.752 246.827 39.968 246.219 38.976C245.611 37.968 245.307 36.824 245.307 35.544C245.307 34.248 245.603 33.104 246.195 32.112C246.803 31.104 247.627 30.32 248.667 29.76C249.707 29.184 250.883 28.896 252.195 28.896C253.459 28.896 254.595 29.168 255.603 29.712C256.627 30.24 257.435 31.008 258.027 32.016C258.619 33.008 258.915 34.2 258.915 35.592C258.915 35.736 258.907 35.904 258.891 36.096C258.875 36.272 258.859 36.44 258.843 36.6H248.355V34.416H256.875L255.435 35.064C255.435 34.392 255.299 33.808 255.027 33.312C254.755 32.816 254.379 32.432 253.899 32.16C253.419 31.872 252.859 31.728 252.219 31.728C251.579 31.728 251.011 31.872 250.515 32.16C250.035 32.432 249.659 32.824 249.387 33.336C249.115 33.832 248.979 34.424 248.979 35.112V35.688C248.979 36.392 249.131 37.016 249.435 37.56C249.755 38.088 250.195 38.496 250.755 38.784C251.331 39.056 252.003 39.192 252.771 39.192C253.459 39.192 254.059 39.088 254.571 38.88C255.099 38.672 255.579 38.36 256.011 37.944L258.003 40.104C257.411 40.776 256.667 41.296 255.771 41.664C254.875 42.016 253.843 42.192 252.675 42.192ZM261.672 36.168L260.928 25.2H265.392L264.648 36.168H261.672ZM263.16 42.192C262.488 42.192 261.936 41.976 261.504 41.544C261.072 41.112 260.856 40.6 260.856 40.008C260.856 39.4 261.072 38.896 261.504 38.496C261.936 38.08 262.488 37.872 263.16 37.872C263.848 37.872 264.4 38.08 264.816 38.496C265.248 38.896 265.464 39.4 265.464 40.008C265.464 40.6 265.248 41.112 264.816 41.544C264.4 41.976 263.848 42.192 263.16 42.192Z" fill="#A39D9D"/>
<path d="M41.8281 27.1318L52.6123 16.3476L55.5949 19.3301L44.8107 30.1143L41.8281 27.1318Z" fill="#DCEAEC"/>
<path d="M14.0488 17.1917L17.0737 14.2512L29.511 27.0454L26.4861 29.9859L14.0488 17.1917Z" fill="#F4F3F2"/>
<path d="M42.0137 45.5088L44.9541 42.4839L59.5226 56.646L56.5821 59.6709L42.0137 45.5088Z" fill="#DCEAEC"/>
<path d="M7.83203 61.222L26.4358 42.592L29.4226 45.5747L10.8189 64.2047L7.83203 61.222Z" fill="#F4F3F2"/>
<path d="M54.8039 36.367C54.8039 38.7733 54.366 41.1179 53.502 43.3358L57.4331 44.867C58.4878 42.1591 59.0226 39.2992 59.0226 36.367C59.0226 33.4349 58.4878 30.5751 57.4331 27.8671L53.502 29.3982C54.3658 31.6162 54.8039 33.9608 54.8039 36.367Z" fill="#DCEAEC"/>
<path d="M44.0788 14.5139L42.5488 18.4458C40.3382 17.5838 38.0038 17.1464 35.6076 17.1436H35.5795C33.1734 17.1436 30.8291 17.5809 28.6101 18.4458L27.0801 14.5139C29.7871 13.4592 32.6474 12.9249 35.5795 12.9249H35.6076C38.5298 12.9277 41.3802 13.462 44.0788 14.5139Z" fill="#F4F3F2"/>
<path d="M17.6592 43.336C16.7953 41.1179 16.3574 38.7733 16.3574 36.367C16.3574 33.9609 16.7953 31.6162 17.6592 29.3981L13.728 27.8672C12.6735 30.5753 12.1387 33.4352 12.1387 36.367C12.1387 39.2991 12.6735 42.1588 13.728 44.8668L17.6592 43.336Z" fill="#F4F3F2"/>
<path d="M44.0788 58.2188C41.3802 59.2706 38.5298 59.805 35.6076 59.8078H35.5795C32.6474 59.8078 29.7871 59.2734 27.0801 58.2188L28.6101 54.2869C30.8291 55.1517 33.1734 55.5891 35.5795 55.5891H35.6076C38.0038 55.5863 40.3382 55.1489 42.5488 54.2869L44.0788 58.2188Z" fill="#F4F3F2"/>
<path d="M22.584 36.3389C22.584 43.5192 28.427 49.3622 35.6071 49.3622L43.3302 36.3389L35.6071 23.3142C28.427 23.3142 22.584 29.1572 22.584 36.3389Z" fill="#7D8186"/>
<path d="M48.6321 36.3389C48.6321 43.5192 42.7891 49.3622 35.6074 49.3622V23.3142C42.7891 23.3142 48.6321 29.1572 48.6321 36.3389Z" fill="#B9B9B9"/>
<path d="M50.3691 13.8926C50.3691 18.1297 53.8171 21.5776 58.0542 21.5776L62.6115 13.8926L58.0542 6.20677C53.817 6.20677 50.3691 9.65462 50.3691 13.8926Z" fill="#C2A5E0"/>
<path d="M65.7405 13.8926C65.7405 18.1297 62.2926 21.5776 58.0547 21.5776V6.20677C62.2926 6.20677 65.7405 9.65462 65.7405 13.8926Z" fill="#A160E4"/>
<path d="M54.1328 63.0669C54.1328 67.9921 58.1408 72.0001 63.066 72.0001L68.3636 63.0669L63.066 54.1327C58.1408 54.1325 54.1328 58.1405 54.1328 63.0669Z" fill="#72E9A5"/>
<path d="M72.0006 63.0668C72.0006 67.992 67.9926 72 63.0664 72V54.1325C67.9926 54.1325 72.0006 58.1404 72.0006 63.0668Z" fill="#54B77E"/>
<path d="M0 65.6722C0 69.1611 2.83894 72 6.3277 72L10.0803 65.6722L6.3277 59.3438C2.83894 59.3438 0 62.1827 0 65.6722Z" fill="#9BF5F5"/>
<path d="M12.6567 65.6722C12.6567 69.1611 9.81759 72 6.32812 72V59.3438C9.81759 59.3438 12.6567 62.1827 12.6567 65.6722Z" fill="#6AD9D9"/>
<path d="M0 10.0368C0 15.57 4.50267 20.0727 10.0357 20.0727L15.9872 10.0368L10.0357 0C4.50267 0 0 4.50267 0 10.0368Z" fill="#F9E586"/>
<path d="M20.072 10.0368C20.072 15.57 15.5693 20.0727 10.0352 20.0727V0C15.5695 0 20.072 4.50267 20.072 10.0368Z" fill="#FFD81A"/>
<path d="M42.5487 54.2869L44.0787 58.2188C41.3801 59.2706 38.5296 59.805 35.6074 59.8078V55.5891C38.0037 55.5863 40.338 55.1489 42.5487 54.2869Z" fill="#DCEAEC"/>
<path d="M42.5487 18.4458C40.338 17.5838 38.0037 17.1464 35.6074 17.1436V12.9249C38.5296 12.9277 41.3801 13.462 44.0787 14.5139L42.5487 18.4458Z" fill="#DCEAEC"/>
</svg>
